<svg width="472" height="553" viewBox="0 0 472 553" fill="none" xmlns="http://www.w3.org/2000/svg">
  <style>
    .favicon-path { fill: black; }
    @media (prefers-color-scheme: dark) {
      .favicon-path { fill: white; }
    }
  </style>
  <path class="favicon-path" d="M221.56 551.746C210.66 548.146 200.76 539.146 196.96 529.246C195.46 525.446 194.56 520.546 194.26 514.246L193.86 505.046L186.66 500.746C182.76 498.346 172.16 492.046 163.06 486.846C153.96 481.546 128.36 466.746 106.06 453.846C83.76 440.846 64.56 429.746 63.36 429.146C61.66 428.246 60.16 428.546 55.36 430.846C50.06 433.346 48.56 433.546 38.06 433.546C27.76 433.446 25.96 433.246 20.96 430.846C13.06 427.246 7.66001 421.946 3.86001 414.246C1.06001 408.546 0.560036 406.446 0.260036 397.946C-0.239964 387.446 1.26003 380.846 5.66003 373.946C8.56003 369.246 16.46 362.446 20.56 360.946C23.76 359.746 23.96 359.446 24.26 354.146C24.46 351.046 24.46 323.546 24.26 293.046L23.96 237.546L19.56 235.646C12.76 232.846 4.76002 223.646 2.06002 215.546C-1.13998 206.046 -0.539989 192.046 3.36001 183.846C6.86001 176.646 13.06 170.446 20.06 167.146C24.66 165.046 27.36 164.546 36.56 164.246C45.86 163.946 48.46 164.146 53.56 165.946C56.86 167.146 60.26 168.346 61.06 168.646C61.86 168.846 69.56 164.946 78.06 159.946C86.56 154.846 101.86 145.846 111.96 139.946C126.66 131.146 131.06 129.046 134.16 129.046C136.26 129.046 138.26 129.546 138.56 130.046C139.56 131.746 150.36 136.846 154.46 137.546C157.96 138.246 158.16 138.446 157.86 141.846C157.56 145.346 157.16 145.746 144.56 153.146C124.36 164.946 77.86 191.946 77.06 192.246C76.66 192.446 76.56 195.346 76.96 198.846L77.56 205.146L97.06 216.046C107.76 222.046 124.06 231.146 133.26 236.246L149.96 245.546L150.06 249.346C150.06 251.446 148.96 255.246 147.66 257.846C146.36 260.446 144.76 264.246 144.16 266.346C143.06 269.446 142.46 270.046 140.06 270.046C137.46 270.046 119.66 260.546 80.26 238.246L65.96 230.146L62.56 232.446C60.66 233.746 57.06 235.646 54.56 236.646L50.06 238.546V358.646L55.36 360.846C58.16 362.046 61.86 364.046 63.46 365.346L66.36 367.646L94.46 351.746C135.96 328.146 136.16 328.046 140.16 328.046C143.56 328.046 143.86 328.346 144.46 331.446C144.86 333.346 146.46 337.546 148.06 340.746C152.66 349.646 152.26 351.246 144.86 355.246C125.56 365.646 79.36 391.546 78.46 392.446C77.86 393.046 77.06 396.046 76.76 399.046L76.26 404.546L92.86 414.146C102.06 419.446 117.26 428.246 126.56 433.746C135.96 439.246 154.16 449.846 167.06 457.246C179.96 464.746 193.96 472.846 198.16 475.346L205.86 479.846L210.36 476.646C212.86 474.846 216.76 472.846 218.96 472.046L223.06 470.746V394.346L248.56 394.546V417.046C248.56 429.446 248.66 446.546 248.86 455.046L249.06 470.646L252.56 471.946C254.46 472.646 258.26 474.646 260.96 476.446L265.86 479.746L297.66 461.346C315.26 451.146 344.36 434.346 362.36 423.846L395.16 404.746L394.56 392.846L367.06 377.346C351.96 368.846 335.36 359.646 330.36 356.846C319.56 351.046 319.36 350.446 324.06 340.546C325.76 337.046 327.36 332.846 327.66 331.146C328.26 328.446 328.76 328.046 331.66 328.046C333.76 328.046 337.96 329.646 342.76 332.346C364.76 344.546 387.56 357.446 395.96 362.246L405.46 367.746L409.66 364.446C412.06 362.746 415.56 360.746 417.56 360.046L421.06 358.846V238.246L418.26 237.546C416.66 237.246 413.16 235.446 410.36 233.646L405.36 230.346L380.96 243.946C335.96 269.146 336.16 269.046 332.66 269.046C329.46 269.046 329.16 268.746 325.16 260.446C318.46 246.446 316.46 248.846 350.36 229.746C366.36 220.646 383.06 211.346 387.36 209.046L395.06 204.846V192.446L365.86 175.346C349.76 165.946 331.76 155.446 325.86 152.046C315.26 145.946 315.06 145.746 315.06 142.146C315.06 138.646 315.26 138.446 319.36 137.346C321.66 136.646 326.36 134.346 329.86 132.146C333.26 129.846 337.26 128.046 338.66 128.046C340.06 128.046 343.06 129.346 345.36 130.846C347.66 132.446 363.16 141.746 379.86 151.546L410.16 169.346L415.26 166.946C419.86 164.846 421.76 164.546 432.96 164.546C445.26 164.546 445.76 164.646 452.26 167.846C459.56 171.446 464.56 176.446 468.26 183.946C470.26 188.046 470.56 189.946 470.56 201.546C470.56 213.746 470.36 214.846 467.76 220.246C464.56 226.846 457.96 233.046 451.56 235.746L447.06 237.546V298.546L447.16 359.546L452.06 361.846C458.06 364.646 464.36 370.946 467.86 377.546C470.16 381.946 470.56 383.946 470.86 394.746C471.26 406.246 471.16 407.146 468.56 412.946C465.26 420.246 458.26 427.146 450.56 430.646C440.36 435.346 420.36 434.746 412.36 429.546C410.26 428.146 409.06 428.646 391.86 438.646C381.76 444.546 363.46 455.146 351.06 462.346C338.66 469.546 317.36 481.946 303.56 489.946L278.56 504.546L277.96 514.646C277.46 522.446 276.76 526.046 274.76 530.346C271.16 538.146 264.36 545.146 256.26 549.146C249.96 552.346 248.96 552.546 237.56 552.746C229.66 552.946 224.16 552.546 221.56 551.746ZM246.16 527.346C252.26 523.146 256.46 515.346 255.76 509.746C254.76 502.146 247.26 494.246 238.86 492.046C231.96 490.146 221.86 496.246 217.96 504.546C215.46 509.946 215.56 512.746 218.56 518.746C221.06 523.746 225.56 528.046 230.26 530.046C234.36 531.846 241.36 530.646 246.16 527.346ZM46.96 408.246C48.96 406.746 51.66 403.346 52.96 400.646C55.26 396.046 55.26 395.946 53.56 391.946C51.46 387.346 45.26 381.346 41.56 380.446C35.16 378.846 27.36 383.246 23.86 390.546C21.96 394.446 21.86 395.446 22.96 398.946C23.56 401.146 25.56 404.346 27.26 406.146C33.86 412.646 40.46 413.446 46.96 408.246ZM438.76 409.946C450.36 404.346 452.06 392.446 442.46 384.046C438.36 380.546 435.26 379.546 430.56 380.446C426.26 381.246 418.56 388.346 417.56 392.346C415.86 398.846 419.76 406.246 426.96 410.046C431.66 412.546 433.46 412.546 438.76 409.946ZM45.76 214.846C49.46 212.646 52.26 208.946 53.86 204.246C55.86 198.346 51.46 190.846 43.66 186.846C40.26 185.146 39.16 184.946 35.86 186.046C27.56 188.446 21.06 197.346 22.56 204.146C24.06 210.846 34.46 218.646 40.06 217.346C41.46 217.046 44.06 215.946 45.76 214.846ZM438.86 215.646C441.96 214.046 446.26 209.546 447.96 206.346C451.06 200.346 447.06 192.046 439.16 187.646C433.16 184.446 430.26 184.646 424.26 189.046C417.16 194.146 415.26 201.646 419.46 208.446C423.86 215.646 432.56 218.946 438.86 215.646Z"/>
  <path class="favicon-path" d="M226.76 389.946C221.96 388.846 217.16 386.346 197.56 374.946C188.76 369.846 176.86 363.046 171.06 359.846C158.76 352.846 157.26 351.646 153.46 344.746L150.56 339.546L150.26 301.346C150.06 276.646 150.36 261.746 151.06 259.146C152.56 253.546 157.86 246.046 162.56 242.946C166.46 240.346 187.56 227.946 208.96 215.746C222.66 207.946 225.56 207.046 236.16 207.046C247.26 207.046 248.56 207.546 272.56 221.346C283.06 227.346 295.96 234.746 301.46 237.946C312.86 244.446 318.36 250.046 320.56 257.346C322.76 264.846 322.76 332.346 320.56 339.846C317.56 349.846 315.26 351.746 283.06 370.146C265.86 380.046 250.96 387.846 247.16 389.046C240.56 391.146 233.16 391.446 226.76 389.946ZM263.36 349.646C278.36 341.146 291.76 333.246 293.36 332.046L296.06 329.846V299.446C296.06 282.046 295.66 268.146 295.06 267.146C294.56 266.146 289.06 262.546 282.86 259.046C276.66 255.546 263.56 248.046 253.76 242.346L235.96 231.946L231.26 234.846C227.26 237.346 207.86 248.446 183.76 261.946C180.66 263.746 177.56 266.046 177.06 267.046C176.46 268.146 176.06 281.146 176.06 299.446V329.846L178.86 332.046C180.36 333.246 192.36 340.246 205.56 347.746C218.76 355.146 230.66 362.146 232.06 363.146C233.46 364.146 234.96 365.046 235.36 365.046C235.76 365.046 248.36 358.146 263.36 349.646Z"/>
  <path class="favicon-path" d="M223.06 164.446L214.96 161.146C204.36 156.846 195.66 148.646 190.76 138.346L187.46 131.346L183.56 132.746C177.56 134.846 163.46 135.446 156.56 134.046C143.56 131.346 133.56 123.746 128.26 112.246C125.86 107.146 125.66 105.346 125.56 95.0459C125.56 81.2459 127.46 75.4459 134.66 67.2459C140.16 60.9459 144.86 57.7459 153.96 54.3459C159.36 52.2459 162.76 51.7459 173.06 51.3459C179.96 51.1459 187.56 51.3459 190.06 51.7459L194.56 52.5459L197.26 46.7459C198.76 43.6459 202.26 38.5459 205.06 35.5459L210.16 30.2459L206.66 26.2459C204.66 24.0459 201.56 21.7459 199.76 21.0459C195.06 19.1459 193.16 17.1459 192.46 13.3459C191.66 8.9459 193.56 2.3459 196.06 1.0459C199.56 -0.854101 208.26 -0.0541008 213.86 2.5459C220.36 5.5459 228.16 13.4459 230.66 19.4459C232.46 23.8459 232.76 24.0459 236.56 24.0459C240.36 24.0459 240.66 23.8459 242.36 19.5459C244.96 13.2459 250.96 6.8459 257.86 3.2459C262.66 0.645896 264.96 0.0458992 269.96 0.0458992C278.06 0.0458992 280.06 1.94589 280.06 9.44589C280.06 16.9459 279.56 17.8459 273.66 20.4459C270.86 21.7459 267.06 24.4459 265.26 26.4459L261.96 30.2459L267.96 36.6459C271.86 40.7459 274.56 44.7459 275.76 48.0459C277.06 51.8459 277.96 52.9459 279.06 52.4459C279.86 52.0459 286.46 51.5459 293.56 51.2459C303.66 50.9459 308.06 51.2459 313.06 52.5459C327.66 56.3459 337.86 64.4459 343.96 77.0459C347.36 84.1459 347.56 85.1459 347.56 94.5459C347.56 101.446 346.96 106.046 345.76 109.546C342.16 119.946 332.36 129.346 321.76 132.646C313.76 135.046 300.76 135.546 292.76 133.646C288.96 132.746 285.76 132.046 285.46 132.046C285.16 132.046 284.06 134.046 282.96 136.446C277.56 148.746 266.36 158.646 252.86 162.946L249.06 164.246V172.946C249.06 177.746 248.76 186.546 248.36 192.446L247.76 203.146L240.66 203.046C236.76 202.946 231.16 203.246 228.36 203.646L223.06 204.346V164.446ZM246.56 140.146C251.86 137.646 255.96 134.146 259.86 128.946C260.86 127.546 260.06 127.546 251.76 128.746C244.76 129.646 239.06 129.746 228.16 128.946C220.26 128.446 213.36 127.746 212.86 127.446C212.46 127.146 212.06 127.446 212.06 128.046C212.06 130.446 222.16 138.946 227.26 140.946C234.66 143.746 239.46 143.546 246.56 140.146ZM174.36 111.946C184.36 108.646 185.06 107.946 185.06 101.246C185.06 94.3459 186.26 89.6459 190.16 81.6459C191.76 78.3459 193.06 75.5459 193.06 75.4459C193.06 74.4459 177.16 71.9459 173.96 72.4459C159.46 74.7459 147.16 85.0459 147.06 94.9459C147.06 101.846 153.76 109.346 162.76 112.646C167.66 114.346 167.16 114.346 174.36 111.946ZM316.46 109.346C329.06 100.446 327.56 86.0459 313.06 77.3459C305.16 72.5459 298.36 71.4459 289.16 73.4459C280.86 75.2459 279.16 76.2459 280.86 78.3459C283.36 81.3459 286.96 93.2459 287.66 100.446C288.36 108.146 288.36 108.146 291.96 109.646C303.16 114.346 309.36 114.346 316.46 109.346ZM252.06 106.046C259.36 104.946 265.46 103.946 265.56 103.846C265.76 103.646 265.16 101.346 264.26 98.7459L262.56 93.9459L210.06 93.5459L208.56 97.3459C206.06 103.646 206.06 103.546 218.86 105.746C233.96 108.446 236.36 108.446 252.06 106.046ZM257.06 68.0459C257.06 57.2459 246.46 46.0459 236.06 45.8459C225.36 45.7459 213.36 59.2459 215.56 69.0459L216.26 72.0459H257.06V68.0459Z"/>
</svg>
